<svg width="18" height="14" viewBox="0 0 18 14" fill="none" xmlns="http://www.w3.org/2000/svg">
<path d="M5.38505 12C5.02571 12 4.68738 11.9187 4.37005 11.756C4.05271 11.5933 3.78938 11.3657 3.58005 11.073L0.671047 6.938C0.47238 6.652 0.373047 6.33933 0.373047 6C0.373047 5.66067 0.47238 5.348 0.671047 5.062L3.58105 0.966C3.78971 0.673333 4.04971 0.439333 4.36105 0.264C4.67171 0.0879999 5.01305 0 5.38505 0H14.385C14.8317 0 15.2127 0.157333 15.528 0.472C15.8427 0.786667 16 1.168 16 1.616V10.385C16 10.8317 15.8427 11.2127 15.528 11.528C15.2134 11.8427 14.8324 12 14.385 12H5.38505ZM9.65405 6.708L11.9 8.954C11.9934 9.04733 12.108 9.09733 12.244 9.104C12.38 9.11067 12.5014 9.06067 12.608 8.954C12.7147 8.84733 12.768 8.72933 12.768 8.6C12.768 8.47067 12.7147 8.35267 12.608 8.246L10.362 6L12.608 3.754C12.7014 3.66067 12.7514 3.546 12.758 3.41C12.7647 3.274 12.7147 3.15267 12.608 3.046C12.5014 2.93933 12.3834 2.886 12.254 2.886C12.1247 2.886 12.0067 2.93933 11.9 3.046L9.65405 5.292L7.40805 3.046C7.31471 2.95267 7.20005 2.90267 7.06405 2.896C6.92738 2.88933 6.80605 2.93933 6.70005 3.046C6.59338 3.15267 6.54005 3.27067 6.54005 3.4C6.54005 3.52933 6.59338 3.64733 6.70005 3.754L8.94605 6L6.70005 8.246C6.60671 8.33933 6.55671 8.45433 6.55005 8.591C6.54338 8.72633 6.59338 8.84733 6.70005 8.954C6.80671 9.06067 6.92471 9.114 7.05405 9.114C7.18338 9.114 7.30138 9.06067 7.40805 8.954L9.65405 6.708Z" fill="black" fill-opacity="0.9"/>
</svg>
