<svg width="19" height="18" viewBox="0 0 19 18" fill="none" xmlns="http://www.w3.org/2000/svg">
<path d="M2.116 18C1.65533 18 1.271 17.846 0.963 17.538C0.655 17.23 0.500667 16.8454 0.5 16.384V3.61603C0.5 3.15536 0.654333 2.77103 0.963 2.46303C1.27167 2.15503 1.656 2.00069 2.116 2.00003H10.502L9.502 3.00003H2.116C1.962 3.00003 1.82067 3.06403 1.692 3.19203C1.56333 3.32003 1.49933 3.46136 1.5 3.61603V16.385C1.5 16.5384 1.564 16.6794 1.692 16.808C1.82 16.9367 1.961 17.0007 2.115 17H14.885C15.0383 17 15.1793 16.936 15.308 16.808C15.4367 16.68 15.5007 16.539 15.5 16.385V8.89603L16.5 7.89603V16.385C16.5 16.845 16.346 17.2294 16.038 17.538C15.73 17.8467 15.3453 18.0007 14.884 18H2.116ZM6.5 12V9.38503L15.444 0.441026C15.5547 0.330359 15.6707 0.253692 15.792 0.211026C15.9133 0.168359 16.0417 0.147359 16.177 0.148026C16.303 0.148026 16.4257 0.169359 16.545 0.212026C16.6643 0.254692 16.773 0.324692 16.871 0.422026L17.983 1.50003C18.0897 1.61069 18.1703 1.73236 18.225 1.86503C18.2797 1.99769 18.3073 2.13103 18.308 2.26503C18.3087 2.39903 18.2883 2.52636 18.247 2.64703C18.207 2.76703 18.1317 2.88203 18.021 2.99203L9.02 12H6.5ZM7.5 11H8.592L15.258 4.33403L14.712 3.78803L14.102 3.20403L7.5 9.80603V11Z" fill="black" fill-opacity="0.9"/>
</svg>
