<svg xmlns="http://www.w3.org/2000/svg" viewBox="0 0 355 100.54"><g fill="#222"><path d="M50.26 0C22.5 0 0 22.5 0 50.27s22.5 50.27 50.26 50.27 50.27-22.5 50.27-50.27S78.03 0 50.26 0zM70.7 72h-6.38V58.44H36.21V72h-6.38V28.01h6.38v13.25h28.11V28.01h6.38v44z"/><path d="M36.52 46.35h28.11v7H36.52zM170.16 46.94h-26.1V28.21h-6.42v43.81h6.42V52.93h26.1v19.09h6.42V28.21h-6.42v18.73zM198.99 45.91c4.38 0 7.44 2.27 8.87 6.58h-17.87c1.23-4.18 4.49-6.58 9.01-6.58m-.01-5.26c-8.87 0-15.56 6.9-15.56 16.05s6.93 16.05 16.11 16.05c10.55 0 14.24-7.06 14.7-9.54l.06-.3h-5.95l-.07.14c-.08.17-2.11 4.07-8.74 4.07-5.49 0-9.56-3.89-9.98-9.5h25.06v-.25c0-9.85-6.42-16.72-15.62-16.72M236.17 67.13c-5.85 0-9.94-4.29-9.94-10.43s4.09-10.42 9.94-10.42 9.82 4.29 9.82 10.42-4.04 10.43-9.82 10.43m9.69-21.41c-1.43-2.1-4.91-5.06-10.73-5.06-8.91 0-15.14 6.6-15.14 16.05s6.22 16.05 15.14 16.05c6.31 0 9.57-3.64 10.73-5.3v4.57h6.05V26.62h-6.05v19.09zM274.35 45.91c4.38 0 7.44 2.27 8.87 6.58h-17.87c1.23-4.18 4.49-6.58 9-6.58m0-5.26c-8.87 0-15.56 6.9-15.56 16.05s6.93 16.05 16.11 16.05c10.55 0 14.24-7.06 14.7-9.54l.06-.3h-5.95l-.07.14c-.08.17-2.11 4.07-8.74 4.07-5.49 0-9.56-3.89-9.98-9.5h25.06v-.25c0-9.85-6.43-16.72-15.62-16.72M302.6 46.08v-4.69h-6.05v30.64h6.05V54.76c0-5.44 2.84-7.56 10.12-7.56h7.94v-6.05h-7.82c-6.37 0-9.11 2.94-10.24 4.94M349.07 56.7c0 6.04-4 10.43-9.51 10.43s-9.76-4.29-9.76-10.43 4.01-10.43 9.76-10.43 9.51 4.39 9.51 10.43m-.12-15.31v4.35c-1.09-1.61-4.17-5.08-10.43-5.08-7.43 0-14.95 5.51-14.95 16.05 0 9.45 6.15 16.05 14.95 16.05 5.95 0 9.07-3.26 10.43-5.29v4.55H355V41.38h-6.05z"/></g></svg>