<?xml version="1.0" encoding="UTF-8"?>
<svg xmlns="http://www.w3.org/2000/svg" xmlns:xlink="http://www.w3.org/1999/xlink" width="1277px" height="400px" viewBox="0 0 1280 400" version="1.1">
<g id="surface1">
<rect x="0" y="0" width="1280" height="400" style="fill:rgb(100%,100%,100%);fill-opacity:1;stroke:none;"/>
<path style=" stroke:none;fill-rule:nonzero;fill:rgb(0%,0%,0%);fill-opacity:1;" d="M 701 307 L 670 307 L 670 213.601562 L 572.398438 213.601562 L 572.398438 307 L 541.398438 307 L 541.398438 102.601562 L 572.398438 102.601562 L 572.398438 187.398438 L 670 187.398438 L 670 102.601562 L 701 102.601562 Z M 701 307 "/>
<path style=" stroke:none;fill-rule:nonzero;fill:rgb(0%,0%,0%);fill-opacity:1;" d="M 764.800781 94 C 769.398438 94 773.398438 95.398438 776.800781 98 C 780.199219 100.601562 782 105.199219 782 111.398438 C 782 117.601562 780.199219 122 776.800781 124.800781 C 773.398438 127.601562 769.398438 129 764.800781 129 C 760.199219 129 756 127.601562 752.398438 124.800781 C 748.800781 122 747.199219 117.601562 747.199219 111.398438 C 747.199219 105.199219 749 100.601562 752.398438 98 C 755.800781 95.398438 760 94 764.800781 94 Z M 779.800781 152.800781 L 779.800781 307.199219 L 749.398438 307.199219 L 749.398438 152.800781 Z M 779.800781 152.800781 "/>
<path style=" stroke:none;fill-rule:nonzero;fill:rgb(0%,0%,0%);fill-opacity:1;" d="M 885.199219 149.800781 C 905.398438 149.800781 921.398438 156 933 168.601562 C 944.601562 181.199219 950.398438 198.199219 950.398438 219.800781 L 950.398438 236.398438 L 846.800781 236.398438 C 847.199219 252.199219 851.398438 264.398438 859.199219 272.800781 C 867 281.199219 878.199219 285.398438 892.601562 285.398438 C 902.601562 285.398438 911.398438 284.601562 919 282.601562 C 926.800781 280.800781 934.601562 278 943 274.398438 L 943 299.601562 C 935.199219 303.199219 927.398438 305.800781 919.601562 307.398438 C 911.800781 309 902.398438 309.800781 891.601562 309.800781 C 876.800781 309.800781 863.601562 306.800781 852 301 C 840.601562 295 831.601562 286.199219 825.199219 274.601562 C 818.800781 263 815.601562 248.398438 815.601562 231 C 815.601562 213.601562 818.601562 199 824.398438 187 C 830.199219 175 838.398438 165.800781 848.800781 159.398438 C 859.199219 153 871.398438 149.800781 885.398438 149.800781 Z M 885.199219 173.398438 C 874.398438 173.398438 865.601562 177 859 184 C 852.398438 191 848.601562 201 847.398438 214 L 920.199219 214 C 920.199219 202 917.199219 192.199219 911.398438 184.601562 C 905.800781 177 897 173.199219 885.199219 173.199219 Z M 885.199219 173.398438 "/>
<path style=" stroke:none;fill-rule:nonzero;fill:rgb(0%,0%,0%);fill-opacity:1;" d="M 1061.601562 149.800781 C 1067.800781 149.800781 1073.398438 150.199219 1078.398438 151.199219 L 1075.199219 179.601562 C 1070.199219 178.199219 1065 177.601562 1059.800781 177.601562 C 1052 177.601562 1044.800781 179.601562 1038 183.398438 C 1031.199219 187.199219 1026 192.601562 1021.800781 199.800781 C 1017.601562 207 1015.601562 215.601562 1015.601562 225.800781 L 1015.601562 307.199219 L 985.199219 307.199219 L 985.199219 152.800781 L 1009.199219 152.800781 L 1013.199219 180.199219 L 1014.398438 180.199219 C 1019.199219 172 1025.601562 164.800781 1033.601562 158.800781 C 1041.601562 152.800781 1050.800781 149.800781 1061.398438 149.800781 Z M 1061.601562 149.800781 "/>
<path style=" stroke:none;fill-rule:nonzero;fill:rgb(0%,0%,0%);fill-opacity:1;" d="M 1234.398438 229.800781 C 1234.398438 255.398438 1227.800781 275.199219 1214.601562 289 C 1201.398438 303 1183.601562 310 1161.398438 310 C 1147.398438 310 1135 307 1124.398438 300.601562 C 1113.601562 294.398438 1105.199219 285.398438 1099 273.398438 C 1092.800781 261.398438 1089.601562 247 1089.601562 229.800781 C 1089.601562 204.199219 1096 184.601562 1109 170.601562 C 1122 156.800781 1139.800781 149.800781 1162.199219 149.800781 C 1176.398438 149.800781 1188.800781 152.800781 1199.601562 159.199219 C 1210.398438 165.398438 1218.800781 174.398438 1225 186.199219 C 1231.199219 198 1234.398438 212.601562 1234.398438 229.800781 Z M 1120.800781 229.800781 C 1120.800781 247.199219 1124 260.800781 1130.601562 270.398438 C 1137.199219 280.199219 1147.601562 285 1162 285 C 1176.398438 285 1186.800781 280.199219 1193.398438 270.398438 C 1200 260.601562 1203.199219 247 1203.199219 229.800781 C 1203.199219 212.601562 1200 198.800781 1193.398438 189.199219 C 1186.800781 179.601562 1176.199219 175 1161.800781 175 C 1147.398438 175 1137 179.800781 1130.601562 189.199219 C 1124.199219 198.601562 1120.800781 212.199219 1120.800781 229.800781 Z M 1120.800781 229.800781 "/>
<path style=" stroke:none;fill-rule:nonzero;fill:rgb(72.156864%,10.196079%,33.725491%);fill-opacity:1;" d="M 384.601562 34.398438 L 77.800781 34.398438 C 65.601562 34.398438 55.800781 44.199219 55.800781 56.398438 L 55.800781 351.398438 C 55.800781 364 66 374.398438 78.800781 374.398438 C 91.398438 374.398438 101.800781 364.199219 101.800781 351.398438 L 101.800781 102.199219 C 101.800781 90 111.601562 80.199219 123.800781 80.199219 L 337.601562 80.199219 C 349.601562 80.199219 359.398438 90 359.601562 102 L 361.601562 305.800781 C 361.601562 318 351.800781 328 339.601562 328 L 273.601562 328 C 261.398438 328 251.601562 318.199219 251.601562 306 L 251.199219 160 C 251.199219 147.398438 241 137.199219 228.199219 137.199219 C 215.601562 137.199219 205.199219 147.398438 205.199219 160.199219 L 205.601562 352.398438 C 205.601562 364.601562 215.398438 374.398438 227.601562 374.398438 L 384.800781 374.398438 C 397 374.398438 406.800781 364.601562 406.800781 352.398438 L 406.800781 56.398438 C 406.800781 44.199219 397 34.398438 384.800781 34.398438 Z M 384.601562 34.398438 "/>
</g>
</svg>
